<mxfile host="app.diagrams.net" agent="Mozilla/5.0 (Windows NT 10.0; Win64; x64) AppleWebKit/537.36 (KHTML, like Gecko) Chrome/131.0.0.0 Safari/537.36" version="24.8.8">
  <diagram name="Seite-1" id="PIdwhDuCiP5LDbIeZKLE">
    <mxGraphModel dx="2110" dy="809" grid="1" gridSize="10" guides="1" tooltips="1" connect="1" arrows="1" fold="1" page="1" pageScale="1" pageWidth="827" pageHeight="1169" math="0" shadow="0">
      <root>
        <mxCell id="0" />
        <mxCell id="1" parent="0" />
        <mxCell id="MklEleXEeYvls_ki88SR-47" value="Document Title" style="rounded=0;whiteSpace=wrap;html=1;" vertex="1" parent="1">
          <mxGeometry x="360" y="320" width="80" height="40" as="geometry" />
        </mxCell>
        <mxCell id="MklEleXEeYvls_ki88SR-48" value="Summary of Full Document" style="rounded=0;whiteSpace=wrap;html=1;fontSize=11;" vertex="1" parent="1">
          <mxGeometry x="360" y="400" width="80" height="40" as="geometry" />
        </mxCell>
        <mxCell id="MklEleXEeYvls_ki88SR-49" value="0" style="rounded=0;whiteSpace=wrap;html=1;fontSize=20;" vertex="1" parent="1">
          <mxGeometry x="360" y="360" width="80" height="40" as="geometry" />
        </mxCell>
        <mxCell id="MklEleXEeYvls_ki88SR-50" value="1. Heading" style="rounded=0;whiteSpace=wrap;html=1;" vertex="1" parent="1">
          <mxGeometry x="200" y="440" width="80" height="40" as="geometry" />
        </mxCell>
        <mxCell id="MklEleXEeYvls_ki88SR-51" value="Summary of Section 1" style="rounded=0;whiteSpace=wrap;html=1;fontSize=11;" vertex="1" parent="1">
          <mxGeometry x="200" y="520" width="80" height="40" as="geometry" />
        </mxCell>
        <mxCell id="MklEleXEeYvls_ki88SR-52" value="1" style="rounded=0;whiteSpace=wrap;html=1;fontSize=20;" vertex="1" parent="1">
          <mxGeometry x="200" y="480" width="80" height="40" as="geometry" />
        </mxCell>
        <mxCell id="MklEleXEeYvls_ki88SR-53" value="2. Heading" style="rounded=0;whiteSpace=wrap;html=1;" vertex="1" parent="1">
          <mxGeometry x="520" y="440" width="80" height="40" as="geometry" />
        </mxCell>
        <mxCell id="MklEleXEeYvls_ki88SR-54" value="Summary of Section 2" style="rounded=0;whiteSpace=wrap;html=1;fontSize=11;" vertex="1" parent="1">
          <mxGeometry x="520" y="520" width="80" height="40" as="geometry" />
        </mxCell>
        <mxCell id="MklEleXEeYvls_ki88SR-55" value="1" style="rounded=0;whiteSpace=wrap;html=1;fontSize=20;" vertex="1" parent="1">
          <mxGeometry x="520" y="480" width="80" height="40" as="geometry" />
        </mxCell>
        <mxCell id="MklEleXEeYvls_ki88SR-56" value="1.1. Sub-Heading" style="rounded=0;whiteSpace=wrap;html=1;" vertex="1" parent="1">
          <mxGeometry x="80" y="560" width="80" height="40" as="geometry" />
        </mxCell>
        <mxCell id="MklEleXEeYvls_ki88SR-57" value="Summary of Sub-Section 1.1" style="rounded=0;whiteSpace=wrap;html=1;fontSize=11;" vertex="1" parent="1">
          <mxGeometry x="80" y="640" width="80" height="40" as="geometry" />
        </mxCell>
        <mxCell id="MklEleXEeYvls_ki88SR-58" value="2" style="rounded=0;whiteSpace=wrap;html=1;fontSize=20;" vertex="1" parent="1">
          <mxGeometry x="80" y="600" width="80" height="40" as="geometry" />
        </mxCell>
        <mxCell id="MklEleXEeYvls_ki88SR-59" value="1.2. Sub-Heading" style="rounded=0;whiteSpace=wrap;html=1;" vertex="1" parent="1">
          <mxGeometry x="320" y="560" width="80" height="40" as="geometry" />
        </mxCell>
        <mxCell id="MklEleXEeYvls_ki88SR-87" value="" style="edgeStyle=orthogonalEdgeStyle;rounded=0;orthogonalLoop=1;jettySize=auto;html=1;entryX=0.5;entryY=0;entryDx=0;entryDy=0;" edge="1" parent="1" source="MklEleXEeYvls_ki88SR-60" target="MklEleXEeYvls_ki88SR-75">
          <mxGeometry relative="1" as="geometry" />
        </mxCell>
        <mxCell id="MklEleXEeYvls_ki88SR-60" value="Summary of Sub-Section 1.2" style="rounded=0;whiteSpace=wrap;html=1;fontSize=11;" vertex="1" parent="1">
          <mxGeometry x="320" y="640" width="80" height="40" as="geometry" />
        </mxCell>
        <mxCell id="MklEleXEeYvls_ki88SR-61" value="2" style="rounded=0;whiteSpace=wrap;html=1;fontSize=20;" vertex="1" parent="1">
          <mxGeometry x="320" y="600" width="80" height="40" as="geometry" />
        </mxCell>
        <mxCell id="MklEleXEeYvls_ki88SR-62" value="Paragraph 4" style="rounded=0;whiteSpace=wrap;html=1;" vertex="1" parent="1">
          <mxGeometry x="440" y="720" width="80" height="40" as="geometry" />
        </mxCell>
        <mxCell id="MklEleXEeYvls_ki88SR-63" value="Paragraph Contents" style="rounded=0;whiteSpace=wrap;html=1;fontSize=11;" vertex="1" parent="1">
          <mxGeometry x="440" y="800" width="80" height="40" as="geometry" />
        </mxCell>
        <mxCell id="MklEleXEeYvls_ki88SR-64" value="100" style="rounded=0;whiteSpace=wrap;html=1;fontSize=20;" vertex="1" parent="1">
          <mxGeometry x="440" y="760" width="80" height="40" as="geometry" />
        </mxCell>
        <mxCell id="MklEleXEeYvls_ki88SR-66" value="Paragraph 5" style="rounded=0;whiteSpace=wrap;html=1;" vertex="1" parent="1">
          <mxGeometry x="600" y="720" width="80" height="40" as="geometry" />
        </mxCell>
        <mxCell id="MklEleXEeYvls_ki88SR-67" value="Paragraph Contents" style="rounded=0;whiteSpace=wrap;html=1;fontSize=11;" vertex="1" parent="1">
          <mxGeometry x="600" y="800" width="80" height="40" as="geometry" />
        </mxCell>
        <mxCell id="MklEleXEeYvls_ki88SR-68" value="100" style="rounded=0;whiteSpace=wrap;html=1;fontSize=20;" vertex="1" parent="1">
          <mxGeometry x="600" y="760" width="80" height="40" as="geometry" />
        </mxCell>
        <mxCell id="MklEleXEeYvls_ki88SR-69" value="Paragraph 1" style="rounded=0;whiteSpace=wrap;html=1;" vertex="1" parent="1">
          <mxGeometry y="720" width="80" height="40" as="geometry" />
        </mxCell>
        <mxCell id="MklEleXEeYvls_ki88SR-70" value="Paragraph Contents" style="rounded=0;whiteSpace=wrap;html=1;fontSize=11;" vertex="1" parent="1">
          <mxGeometry y="800" width="80" height="40" as="geometry" />
        </mxCell>
        <mxCell id="MklEleXEeYvls_ki88SR-71" value="100" style="rounded=0;whiteSpace=wrap;html=1;fontSize=20;" vertex="1" parent="1">
          <mxGeometry y="760" width="80" height="40" as="geometry" />
        </mxCell>
        <mxCell id="MklEleXEeYvls_ki88SR-72" value="Paragraph 2" style="rounded=0;whiteSpace=wrap;html=1;" vertex="1" parent="1">
          <mxGeometry x="160" y="720" width="80" height="40" as="geometry" />
        </mxCell>
        <mxCell id="MklEleXEeYvls_ki88SR-73" value="Paragraph Contents" style="rounded=0;whiteSpace=wrap;html=1;fontSize=11;" vertex="1" parent="1">
          <mxGeometry x="160" y="800" width="80" height="40" as="geometry" />
        </mxCell>
        <mxCell id="MklEleXEeYvls_ki88SR-74" value="100" style="rounded=0;whiteSpace=wrap;html=1;fontSize=20;" vertex="1" parent="1">
          <mxGeometry x="160" y="760" width="80" height="40" as="geometry" />
        </mxCell>
        <mxCell id="MklEleXEeYvls_ki88SR-75" value="Paragraph 3" style="rounded=0;whiteSpace=wrap;html=1;" vertex="1" parent="1">
          <mxGeometry x="320" y="720" width="80" height="40" as="geometry" />
        </mxCell>
        <mxCell id="MklEleXEeYvls_ki88SR-76" value="Paragraph Contents" style="rounded=0;whiteSpace=wrap;html=1;fontSize=11;" vertex="1" parent="1">
          <mxGeometry x="320" y="800" width="80" height="40" as="geometry" />
        </mxCell>
        <mxCell id="MklEleXEeYvls_ki88SR-77" value="100" style="rounded=0;whiteSpace=wrap;html=1;fontSize=20;" vertex="1" parent="1">
          <mxGeometry x="320" y="760" width="80" height="40" as="geometry" />
        </mxCell>
        <mxCell id="MklEleXEeYvls_ki88SR-79" value="" style="endArrow=classic;html=1;rounded=0;exitX=0;exitY=0.5;exitDx=0;exitDy=0;entryX=0.5;entryY=0;entryDx=0;entryDy=0;" edge="1" parent="1" source="MklEleXEeYvls_ki88SR-49" target="MklEleXEeYvls_ki88SR-50">
          <mxGeometry width="50" height="50" relative="1" as="geometry">
            <mxPoint x="250" y="330" as="sourcePoint" />
            <mxPoint x="90" y="390" as="targetPoint" />
            <Array as="points">
              <mxPoint x="240" y="380" />
            </Array>
          </mxGeometry>
        </mxCell>
        <mxCell id="MklEleXEeYvls_ki88SR-81" value="" style="endArrow=classic;html=1;rounded=0;exitX=0;exitY=0.5;exitDx=0;exitDy=0;entryX=0.5;entryY=0;entryDx=0;entryDy=0;" edge="1" parent="1" target="MklEleXEeYvls_ki88SR-53">
          <mxGeometry width="50" height="50" relative="1" as="geometry">
            <mxPoint x="440" y="380" as="sourcePoint" />
            <mxPoint x="280" y="440" as="targetPoint" />
            <Array as="points">
              <mxPoint x="560" y="380" />
            </Array>
          </mxGeometry>
        </mxCell>
        <mxCell id="MklEleXEeYvls_ki88SR-82" value="" style="endArrow=classic;html=1;rounded=0;exitX=0;exitY=0.5;exitDx=0;exitDy=0;entryX=0.5;entryY=0;entryDx=0;entryDy=0;" edge="1" parent="1" target="MklEleXEeYvls_ki88SR-56">
          <mxGeometry width="50" height="50" relative="1" as="geometry">
            <mxPoint x="200" y="500" as="sourcePoint" />
            <mxPoint x="40" y="560" as="targetPoint" />
            <Array as="points">
              <mxPoint x="120" y="500" />
            </Array>
          </mxGeometry>
        </mxCell>
        <mxCell id="MklEleXEeYvls_ki88SR-84" value="" style="endArrow=classic;html=1;rounded=0;exitX=0;exitY=0.5;exitDx=0;exitDy=0;entryX=0.5;entryY=0;entryDx=0;entryDy=0;" edge="1" parent="1" target="MklEleXEeYvls_ki88SR-69">
          <mxGeometry width="50" height="50" relative="1" as="geometry">
            <mxPoint x="80" y="620" as="sourcePoint" />
            <mxPoint x="-80" y="680" as="targetPoint" />
            <Array as="points">
              <mxPoint x="40" y="620" />
            </Array>
          </mxGeometry>
        </mxCell>
        <mxCell id="MklEleXEeYvls_ki88SR-85" value="" style="endArrow=classic;html=1;rounded=0;exitX=0;exitY=0.5;exitDx=0;exitDy=0;entryX=0.5;entryY=0;entryDx=0;entryDy=0;" edge="1" parent="1" target="MklEleXEeYvls_ki88SR-72">
          <mxGeometry width="50" height="50" relative="1" as="geometry">
            <mxPoint x="160" y="620" as="sourcePoint" />
            <mxPoint x="320" y="680" as="targetPoint" />
            <Array as="points">
              <mxPoint x="200" y="620" />
            </Array>
          </mxGeometry>
        </mxCell>
        <mxCell id="MklEleXEeYvls_ki88SR-86" value="" style="endArrow=classic;html=1;rounded=0;exitX=1;exitY=0.5;exitDx=0;exitDy=0;entryX=0.5;entryY=0;entryDx=0;entryDy=0;" edge="1" parent="1" source="MklEleXEeYvls_ki88SR-52" target="MklEleXEeYvls_ki88SR-59">
          <mxGeometry width="50" height="50" relative="1" as="geometry">
            <mxPoint x="310" y="500" as="sourcePoint" />
            <mxPoint x="440" y="520" as="targetPoint" />
            <Array as="points">
              <mxPoint x="360" y="500" />
            </Array>
          </mxGeometry>
        </mxCell>
        <mxCell id="MklEleXEeYvls_ki88SR-88" value="" style="endArrow=classic;html=1;rounded=0;exitX=0;exitY=0.5;exitDx=0;exitDy=0;entryX=0.5;entryY=0;entryDx=0;entryDy=0;" edge="1" parent="1" target="MklEleXEeYvls_ki88SR-66">
          <mxGeometry width="50" height="50" relative="1" as="geometry">
            <mxPoint x="600" y="500" as="sourcePoint" />
            <mxPoint x="640" y="600" as="targetPoint" />
            <Array as="points">
              <mxPoint x="640" y="500" />
            </Array>
          </mxGeometry>
        </mxCell>
        <mxCell id="MklEleXEeYvls_ki88SR-89" value="" style="endArrow=classic;html=1;rounded=0;exitX=0;exitY=0.5;exitDx=0;exitDy=0;" edge="1" parent="1" target="MklEleXEeYvls_ki88SR-62">
          <mxGeometry width="50" height="50" relative="1" as="geometry">
            <mxPoint x="520" y="500" as="sourcePoint" />
            <mxPoint x="480" y="600" as="targetPoint" />
            <Array as="points">
              <mxPoint x="480" y="500" />
            </Array>
          </mxGeometry>
        </mxCell>
      </root>
    </mxGraphModel>
  </diagram>
</mxfile>
